<svg width="368" height="298" viewBox="0 0 368 298" fill="none" xmlns="http://www.w3.org/2000/svg">
<path d="M88.9355 244.061C113.264 268.386 146.87 283.431 183.991 283.431V292.656C183.991 294.512 185.517 296.038 187.374 295.999C265.883 294.227 329.224 230.897 330.999 152.374C331.041 150.514 329.518 148.988 327.655 148.988H318.431C318.431 74.7383 258.237 14.5443 183.988 14.5443V5.34472C183.988 3.48164 182.465 1.95538 180.605 2.001C142.568 2.86061 108.082 18.1723 82.4376 42.6625C81.0938 43.9431 81.0938 46.0974 82.406 47.4096L88.9145 53.9322C64.5927 78.261 49.5477 111.867 49.5477 148.988H40.3446C38.4885 148.988 36.9587 150.514 37.0008 152.374C37.8605 190.411 53.1756 224.897 77.6623 250.542C78.943 251.889 81.0937 251.885 82.4095 250.573L88.932 244.065L88.9355 244.061Z" fill="#FF788F" stroke="white" stroke-width="2" stroke-linecap="round" stroke-linejoin="round"/>
<mask id="mask0_9111_1674" style="mask-type:luminance" maskUnits="userSpaceOnUse" x="37" y="2" width="294" height="294">
<path d="M88.9355 244.061C113.264 268.386 146.87 283.431 183.991 283.431V292.656C183.991 294.512 185.517 296.038 187.374 295.999C265.883 294.227 329.224 230.897 330.999 152.374C331.041 150.514 329.518 148.988 327.655 148.988H318.431C318.431 74.7383 258.237 14.5443 183.988 14.5443V5.34472C183.988 3.48164 182.465 1.95538 180.605 2.001C142.568 2.86061 108.082 18.1723 82.4376 42.6625C81.0938 43.9431 81.0938 46.0974 82.406 47.4096L88.9145 53.9322C64.5927 78.261 49.5477 111.867 49.5477 148.988H40.3446C38.4885 148.988 36.9587 150.514 37.0008 152.374C37.8605 190.411 53.1756 224.897 77.6623 250.542C78.943 251.889 81.0937 251.885 82.4095 250.573L88.932 244.065L88.9355 244.061Z" fill="white"/>
</mask>
<g mask="url(#mask0_9111_1674)">
<path d="M293.468 109.737L323.919 101.916L330.6 72.6436L293.468 109.737Z" fill="black" stroke="black" stroke-width="1.2" stroke-linecap="round" stroke-linejoin="round"/>
<path d="M220.05 74.0815L210.264 75.1587C210.752 77.4182 211.162 80.3479 211.068 83.7688C210.997 86.3196 210.664 88.5546 210.264 90.4036C223.197 93.0105 236.407 95.856 249.884 98.9647C264.844 102.417 279.377 106.021 293.468 109.736C305.846 97.3718 318.225 85.0074 330.6 72.643V57.0752L220.05 74.0815Z" fill="#FF788F" stroke="#FF788F" stroke-width="1.2" stroke-linecap="round" stroke-linejoin="round"/>
<path d="M210.264 75.1621C210.752 77.4217 211.162 80.3514 211.068 83.7723C210.997 86.3231 210.664 88.558 210.264 90.4071C223.015 92.9754 236.039 95.7788 249.312 98.8383C264.472 102.329 279.195 105.978 293.468 109.743" stroke="white" stroke-width="1.2" stroke-linecap="round" stroke-linejoin="round"/>
<path d="M292.864 100.186L303.201 89.8604" stroke="white" stroke-width="1.2" stroke-linecap="round" stroke-linejoin="round"/>
<path d="M330.6 57.0788L293.549 94.0913C264.683 87.4986 235.818 80.9024 206.952 74.3097C219.843 67.1275 233.481 57.9945 246.94 46.3178C249.554 44.0513 252.059 41.7742 254.466 39.4971C279.844 45.3565 305.222 51.2194 330.6 57.0788Z" fill="white" stroke="white" stroke-width="1.2" stroke-miterlimit="10"/>
<path d="M268.862 65.9798L254.147 74.0812L254.186 59.3134L268.311 51.7383L268.862 65.9798Z" fill="#FF788F" stroke="black" stroke-width="1.2" stroke-linecap="round" stroke-linejoin="round"/>
<path d="M268.312 51.7383L268.862 65.9833L291.823 71.5936L290.623 57.2503L268.312 51.7383Z" fill="#FF788F" stroke="black" stroke-width="1.2" stroke-linecap="round" stroke-linejoin="round"/>
<path d="M268.862 65.9834L254.147 74.0848L278.023 79.853L291.823 71.5937L268.862 65.9834Z" fill="#FF788F" stroke="black" stroke-width="1.2" stroke-linecap="round" stroke-linejoin="round"/>
<path d="M267.88 57.5311L253.476 65.2607L254.855 67.8299L269.258 60.1002L267.88 57.5311Z" fill="black"/>
<path d="M260.083 70.8185L259.501 55.8437L262.413 55.7314L262.968 69.9765L260.083 70.8185Z" fill="black"/>
<path d="M291.352 65.955L268.237 60.2465L268.936 57.415L291.18 62.9095L291.352 65.955Z" fill="black"/>
<path d="M283.009 76.8704L259.519 71.1268L261.852 68.6953L286.809 74.7933L283.009 76.8704Z" fill="black"/>
<path d="M261.098 64.3028C260.74 64.3028 260.276 64.18 259.831 63.6888C258.634 62.3695 255.129 54.4506 256.687 50.9489C257.224 49.742 258.315 49.0508 259.677 49.0508H259.691C260.834 49.0543 262.855 49.7069 263.547 54.0155C263.827 55.7698 263.859 57.9767 263.627 59.917C263.227 63.2642 262.326 63.98 261.582 64.2256C261.473 64.2607 261.301 64.3028 261.094 64.3028H261.098ZM259.677 51.9629C259.431 51.9629 259.413 52.0015 259.357 52.1243C258.761 53.4225 259.785 56.882 260.771 59.2995C260.996 57.082 260.915 54.0015 260.073 52.4261C259.894 52.0928 259.736 51.9629 259.677 51.9629Z" fill="black"/>
<path d="M251.322 68.0074C250.603 68.0074 249.947 67.9092 249.393 67.6846C248.161 67.1864 247.431 66.1163 247.389 64.7479C247.354 63.6041 247.933 61.5621 252.217 60.72C253.961 60.3761 256.164 60.2709 258.111 60.4358C261.473 60.72 262.217 61.5971 262.49 62.3304C262.599 62.6217 262.767 63.3725 262.017 64.1023C260.939 65.1514 255.217 68.0074 251.322 68.0074ZM256.199 63.2708C254.22 63.2708 251.996 63.5339 250.754 64.2532C250.442 64.4356 250.305 64.6005 250.305 64.6567C250.312 64.9093 250.35 64.9233 250.477 64.976C251.792 65.5268 255.217 64.383 257.599 63.3129C257.161 63.2848 256.687 63.2672 256.199 63.2672V63.2708Z" fill="black"/>
<path d="M220.05 83.4072L292.664 100.245" stroke="white" stroke-width="1.2" stroke-linecap="round" stroke-linejoin="round"/>
<path d="M272.416 99.0879C275.072 99.6037 277.844 100.221 280.714 100.961C285.089 102.084 289.142 103.344 292.861 104.66" stroke="white" stroke-width="1.2" stroke-linecap="round" stroke-linejoin="round"/>
<path d="M293.468 109.736C293.04 107.719 292.678 105.182 292.664 102.249C292.65 99.014 293.068 96.2387 293.549 94.0879" stroke="white" stroke-width="1.2" stroke-linecap="round" stroke-linejoin="round"/>
<path d="M205.559 75.0855C223.253 78.1625 241.238 81.1133 259.501 83.9237C269.732 85.4991 279.893 87.0043 289.977 88.4428C295.485 81.5905 302.446 74.0259 311.127 66.5349C315.905 62.4123 320.589 58.8405 325.038 55.7529" stroke="#FF788F" stroke-width="1.2" stroke-linecap="round" stroke-linejoin="round"/>
<path d="M80.9464 44.4795L189.363 -2.38167L150.193 -12.9707L94.7107 8.61787L70.6626 28.3118L80.9464 44.4795Z" fill="white" stroke="#FF788F" stroke-width="1.2" stroke-linecap="round" stroke-linejoin="round"/>
<path d="M-6.9375 129.689V142.257L217.86 268.901C220.12 270.175 222.842 270.319 225.221 269.291L433.434 179.449V167.004L225.221 256.726C222.842 257.751 220.12 257.607 217.864 256.337L-6.9375 129.689Z" fill="white" stroke="white" stroke-width="1.2" stroke-linecap="round" stroke-linejoin="round"/>
<path d="M18.3878 111.894L-6.9375 129.69L217.864 256.334C220.12 257.604 222.842 257.751 225.221 256.723L433.434 167.001L366.636 96.8738L219.383 160.331L77.1748 80.2148L18.3913 111.894H18.3878Z" fill="white" stroke="#FF788F" stroke-width="1.2" stroke-linecap="round" stroke-linejoin="round"/>
<path d="M37.5591 154.759L134.976 112.782" stroke="#FF788F" stroke-width="1.2" stroke-linecap="round" stroke-linejoin="round"/>
<path d="M121.818 202.227L219.33 160.208" stroke="#FF788F" stroke-width="1.2" stroke-linecap="round" stroke-linejoin="round"/>
<path d="M318.859 216.374L219.379 160.331" stroke="#FF788F" stroke-width="1.2" stroke-linecap="round" stroke-linejoin="round"/>
<path d="M286.082 212.255L217.425 241.766L152.221 205.073L220.877 175.562L286.082 212.255Z" fill="#FF788F"/>
<path d="M255.957 233.717L226.035 246.611L230.509 249.127L260.43 236.236L255.957 233.717Z" fill="#FF788F"/>
<path d="M265.385 234.099L278.928 228.264L274.454 225.745L260.911 231.58L265.385 234.099Z" fill="#FF788F"/>
<path d="M183.206 181.877L144.126 198.722L148.603 201.241L187.679 184.396L183.206 181.877Z" fill="#FF788F"/>
<path d="M221.442 271.793V257.404" stroke="#FF788F" stroke-width="1.2" stroke-linecap="round" stroke-linejoin="round"/>
<path d="M121.818 202.228V217.511" stroke="#FF788F" stroke-width="1.2" stroke-linecap="round" stroke-linejoin="round"/>
<path d="M37.5591 154.759V170.042" stroke="#FF788F" stroke-width="1.2" stroke-linecap="round" stroke-linejoin="round"/>
<path d="M294.464 143.524L307.029 138.093L302.555 135.577L289.991 141.005L294.464 143.524Z" fill="black"/>
<path d="M284.159 143.527L254.939 156.158L259.413 158.674L288.636 146.043L284.159 143.527Z" fill="black"/>
<path d="M319.386 161.337L329.417 157.001L325.845 154.99L315.814 159.327L319.386 161.337Z" fill="#FF788F"/>
<path d="M322.614 142.883L259.539 170.148" stroke="#FF788F" stroke-width="1.2" stroke-linecap="round" stroke-linejoin="round"/>
<path d="M296.267 167.779L272.935 177.863L276.507 179.874L299.839 169.79L296.267 167.779Z" fill="#FF788F"/>
<path d="M308.741 174.811L285.408 184.894L288.983 186.905L312.312 176.821L308.741 174.811Z" fill="#FF788F"/>
<path d="M313.382 184.926L297.601 191.747L301.176 193.757L316.954 186.936L313.382 184.926Z" fill="#FF788F"/>
<path d="M376.345 166.257L302.358 124.574" stroke="#FF788F" stroke-width="1.2" stroke-linecap="round" stroke-linejoin="round"/>
<path d="M193.163 171.484L119.226 129.83" stroke="#FF788F" stroke-width="1.2" stroke-linecap="round" stroke-linejoin="round"/>
<path d="M160.659 166.488L157.045 168.046L170.879 175.839L174.493 174.281L160.659 166.488Z" fill="#FF788F"/>
<path d="M142.393 174.359L156.249 182.165L159.866 180.607L146.01 172.801L142.393 174.359Z" fill="#FF788F"/>
<path d="M127.488 180.782L141.34 188.586L144.954 187.031L131.102 179.225L127.488 180.782Z" fill="#FF788F"/>
<path d="M165.424 138.858L162.083 141.413L190.851 157.619L195.31 155.696L165.424 138.858Z" fill="black"/>
<path d="M134.744 35.0135L60.7544 -6.66895" stroke="#FF788F" stroke-width="1.2" stroke-linecap="round" stroke-linejoin="round"/>
<path d="M177.697 22.8348L103.71 -18.8477" stroke="#FF788F" stroke-width="1.2" stroke-linecap="round" stroke-linejoin="round"/>
<path d="M140.706 13.3721L125.85 19.7964" stroke="#FF788F" stroke-width="1.2" stroke-linecap="round" stroke-linejoin="round"/>
<path d="M270.43 182.993L256.36 115.852H240.53L226.46 182.993H226.52C226.485 183.168 226.46 183.343 226.46 183.519C226.46 187.74 236.302 191.161 248.445 191.161C260.588 191.161 270.43 187.74 270.43 183.519C270.43 183.34 270.405 183.165 270.37 182.993H270.43Z" fill="white"/>
<path d="M270.43 182.993L256.36 115.852H240.53L226.46 182.993H226.52C226.485 183.168 226.46 183.343 226.46 183.519C226.46 187.74 236.302 191.161 248.445 191.161C260.588 191.161 270.43 187.74 270.43 183.519C270.43 183.34 270.405 183.165 270.37 182.993H270.43Z" stroke="#FF788F" stroke-width="1.2" stroke-linecap="round" stroke-linejoin="round"/>
<path d="M242.049 126.732C241.259 126.62 240.519 127.139 240.351 127.918L229.446 179.225C229.074 181.151 230.13 183.067 231.954 183.782L232.035 183.814C234.53 184.793 237.274 183.137 237.568 180.474L243.34 128.402C243.431 127.588 242.859 126.851 242.045 126.736L242.049 126.732Z" fill="#FF788F"/>
<path d="M248.445 120.427C255.628 120.427 261.451 114.604 261.451 107.421C261.451 100.237 255.628 94.4141 248.445 94.4141C241.262 94.4141 235.438 100.237 235.438 107.421C235.438 114.604 241.262 120.427 248.445 120.427Z" fill="white"/>
<path d="M252.266 98.3119C252.01 98.0523 250.954 97.5506 249.652 97.5155C240.568 97.2699 237.807 106.631 239.203 111.322C240.003 114.01 242.33 115.838 243.814 115.746C245.298 115.655 245.789 114.006 245.315 113.003C244.754 111.82 244.603 110.448 244.603 109.062C244.603 104.084 247.807 99.8487 252.263 98.3119H252.266Z" fill="#FF788F"/>
<path d="M248.445 120.427C255.628 120.427 261.451 114.604 261.451 107.421C261.451 100.237 255.628 94.4141 248.445 94.4141C241.262 94.4141 235.438 100.237 235.438 107.421C235.438 114.604 241.262 120.427 248.445 120.427Z" stroke="white" stroke-width="1.2" stroke-linecap="round" stroke-linejoin="round"/>
<path d="M234.267 107.421C234.267 99.5893 240.614 93.2422 248.445 93.2422C256.276 93.2422 262.623 99.5893 262.623 107.421C262.623 115.252 256.276 121.599 248.445 121.599" stroke="#FF788F" stroke-width="1.2" stroke-linecap="round" stroke-linejoin="round"/>
<path d="M248.445 121.602C251.894 123.56 255.346 125.518 258.795 127.479C258.185 124.571 257.578 121.662 256.967 118.757C256.108 119.402 254.771 120.248 252.982 120.851C251.147 121.473 249.533 121.602 248.441 121.602H248.445Z" fill="#FF788F"/>
<path d="M233.333 209.342L219.264 142.201H203.433L189.363 209.342H189.423C189.388 209.518 189.363 209.693 189.363 209.869C189.363 214.089 199.205 217.51 211.348 217.51C223.492 217.51 233.333 214.089 233.333 209.869C233.333 209.69 233.309 209.514 233.274 209.342H233.333Z" fill="black"/>
<path d="M204.949 153.082C204.159 152.969 203.419 153.489 203.25 154.268L192.346 205.574C191.974 207.5 193.03 209.416 194.854 210.132L194.935 210.163C197.43 211.142 200.173 209.486 200.468 206.823L206.24 154.752C206.331 153.938 205.759 153.201 204.945 153.085L204.949 153.082Z" fill="#FF788F"/>
<path d="M233.333 209.342L219.264 142.201H203.433L189.363 209.342H189.423C189.388 209.518 189.363 209.693 189.363 209.869C189.363 214.089 199.205 217.51 211.348 217.51C223.492 217.51 233.333 214.089 233.333 209.869C233.333 209.69 233.309 209.514 233.274 209.342H233.333Z" stroke="black" stroke-width="1.2" stroke-linecap="round" stroke-linejoin="round"/>
<path d="M211.348 146.777C218.532 146.777 224.355 140.953 224.355 133.77C224.355 126.587 218.532 120.764 211.348 120.764C204.165 120.764 198.342 126.587 198.342 133.77C198.342 140.953 204.165 146.777 211.348 146.777Z" fill="black"/>
<path d="M215.169 124.662C214.913 124.402 213.857 123.9 212.555 123.865C203.472 123.619 200.71 132.981 202.107 137.672C202.907 140.359 205.233 142.187 206.717 142.096C208.201 142.005 208.692 140.356 208.219 139.352C207.657 138.17 207.507 136.798 207.507 135.412C207.507 130.433 210.71 126.198 215.166 124.662H215.169Z" fill="#FF788F"/>
<path d="M211.348 146.777C218.532 146.777 224.355 140.953 224.355 133.77C224.355 126.587 218.532 120.764 211.348 120.764C204.165 120.764 198.342 126.587 198.342 133.77C198.342 140.953 204.165 146.777 211.348 146.777Z" stroke="black" stroke-width="1.2" stroke-linecap="round" stroke-linejoin="round"/>
<path d="M197.17 133.77C197.17 125.939 203.517 119.592 211.348 119.592C219.18 119.592 225.527 125.939 225.527 133.77C225.527 141.601 219.18 147.949 211.348 147.949" stroke="#FF788F" stroke-width="1.2" stroke-linecap="round" stroke-linejoin="round"/>
</g>
<path d="M88.9355 244.061C113.264 268.386 146.87 283.431 183.991 283.431V292.656C183.991 294.512 185.517 296.038 187.374 295.999C265.883 294.227 329.224 230.897 330.999 152.374C331.041 150.514 329.518 148.988 327.655 148.988H318.431C318.431 74.7383 258.237 14.5443 183.988 14.5443V5.34472C183.988 3.48164 182.465 1.95538 180.605 2.001C142.568 2.86061 108.082 18.1723 82.4376 42.6625C81.0938 43.9431 81.0938 46.0974 82.406 47.4096L88.9145 53.9322C64.5927 78.261 49.5477 111.867 49.5477 148.988H40.3446C38.4885 148.988 36.9587 150.514 37.0008 152.374C37.8605 190.411 53.1756 224.897 77.6623 250.542C78.943 251.889 81.0937 251.885 82.4095 250.573L88.932 244.065L88.9355 244.061Z" stroke="white" stroke-width="2" stroke-linecap="round" stroke-linejoin="round"/>
<path d="M97.749 117.119L177.697 82.668V144.922L97.749 179.373V117.119Z" fill="#FF788F"/>
<path d="M177.697 82.668V144.922L97.749 179.373" stroke="black" stroke-width="1.2" stroke-linecap="round" stroke-linejoin="round"/>
<path d="M105.229 132.89L148.407 114.284V144.051L105.229 162.658V132.89Z" fill="black"/>
<path d="M97.7491 121.308V179.373L52.6387 153.96V95.8955L97.7491 121.308Z" fill="#FF788F" stroke="#FF788F" stroke-width="1.2" stroke-linecap="round" stroke-linejoin="round"/>
<path d="M97.7491 179.373L52.6387 153.96V95.8955" stroke="black" stroke-width="1.2" stroke-linecap="round" stroke-linejoin="round"/>
<path d="M145.277 142.308L148.158 143.932L104.924 162.5V159.696L145.277 142.308Z" fill="#FF788F" stroke="#FF788F" stroke-width="1.2" stroke-linecap="round" stroke-linejoin="round"/>
<path d="M148.157 143.931L145.277 142.307V115.34L148.101 114.122L148.157 143.931Z" fill="#FF788F" stroke="#FF788F" stroke-width="1.2" stroke-linecap="round" stroke-linejoin="round"/>
<path d="M174.177 113.849L156.669 121.392V153.994L174.177 146.447V113.849Z" stroke="black" stroke-width="1.2" stroke-linecap="round" stroke-linejoin="round"/>
<path d="M171.259 118.273L159.589 123.301V145.027L171.259 139.999V118.273Z" fill="black"/>
<path d="M158.101 143.082L159.589 145.026L171.258 139.998L168.655 138.535L158.101 143.082Z" fill="#FF788F" stroke="#FF788F" stroke-width="1.2" stroke-linecap="round" stroke-linejoin="round"/>
<path d="M168.655 138.536V117.912L171.258 118.273V139.999L168.655 138.536Z" fill="#FF788F" stroke="#FF788F" stroke-width="1.2" stroke-linecap="round" stroke-linejoin="round"/>
<path d="M168.255 138.321L171.258 139.998" stroke="black" stroke-width="1.2" stroke-linecap="round" stroke-linejoin="round"/>
<path d="M47.2705 81.7588L97.7491 110.196L177.697 75.745L127.218 47.3076L47.2705 81.7588Z" fill="black" stroke="black" stroke-width="1.2" stroke-linecap="round" stroke-linejoin="round"/>
<path d="M47.2705 95.6039L97.7491 124.041L177.697 89.5902V75.7451L47.2705 81.7589V95.6039Z" fill="black" stroke="black" stroke-width="1.2" stroke-linecap="round" stroke-linejoin="round"/>
<path d="M97.749 179.372V110.196" stroke="black" stroke-width="1.2" stroke-linecap="round" stroke-linejoin="round"/>
<path d="M47.2705 81.7589L97.7491 110.196L177.697 75.7451" stroke="#FF788F" stroke-width="1.2" stroke-linecap="round" stroke-linejoin="round"/>
<path d="M60.0347 82.106L98.7488 103.916L164.936 75.3975L126.221 53.5879L60.0347 82.106Z" stroke="#FF788F" stroke-width="1.2" stroke-linecap="round" stroke-linejoin="round"/>
<path d="M159.08 77.9197L126.221 59.4082L65.8906 85.4036" stroke="#FF788F" stroke-width="1.2" stroke-linecap="round" stroke-linejoin="round"/>
<path d="M126.221 53.5879V59.4087" stroke="#FF788F" stroke-width="1.2" stroke-linecap="round" stroke-linejoin="round"/>
<path d="M148.157 143.931L143.688 141.412" stroke="black" stroke-width="1.2" stroke-linecap="round" stroke-linejoin="round"/>
<path d="M124.794 136.143L113.299 154.759" stroke="#FF788F" stroke-width="1.2" stroke-linecap="round" stroke-linejoin="round"/>
<path d="M131.842 136.03L127.969 142.307" stroke="#FF788F" stroke-width="1.2" stroke-linecap="round" stroke-linejoin="round"/>
<path d="M105.229 132.89L148.407 114.284V144.051L105.229 162.658V132.89Z" stroke="black" stroke-width="1.2" stroke-linecap="round" stroke-linejoin="round"/>
<path d="M171.259 118.273L159.589 123.301V145.027L171.259 139.999V118.273Z" stroke="black" stroke-width="1.2" stroke-linecap="round" stroke-linejoin="round"/>
<path d="M149.46 117.978L149.386 118.01C146.586 119.213 143.467 117.161 143.467 114.112V113.003L154.866 108.091V109.771C154.866 113.34 152.74 116.568 149.463 117.978H149.46Z" fill="white" stroke="#FF788F" stroke-width="1.2" stroke-linecap="round" stroke-linejoin="round"/>
<path d="M160.898 113.063L160.785 113.112C157.985 114.315 154.866 112.263 154.866 109.214V108.095L166.304 103.165V104.86C166.304 108.428 164.178 111.656 160.901 113.066L160.898 113.063Z" fill="black" stroke="#FF788F" stroke-width="1.2" stroke-linecap="round" stroke-linejoin="round"/>
<path d="M172.448 108.098L172.297 108.162C169.497 109.365 166.378 107.312 166.378 104.263V103.13L177.851 98.1865V99.8952C177.851 103.463 175.725 106.691 172.448 108.102V108.098Z" fill="white" stroke="#FF788F" stroke-width="1.2" stroke-linecap="round" stroke-linejoin="round"/>
<path d="M183.96 103.151L183.774 103.232C180.974 104.435 177.855 102.383 177.855 99.3335V98.1897L189.367 93.2285V94.9477C189.367 98.516 187.241 101.744 183.964 103.154L183.96 103.151Z" fill="black" stroke="#FF788F" stroke-width="1.2" stroke-linecap="round" stroke-linejoin="round"/>
<path d="M115.335 132.648C112.535 133.851 109.416 131.798 109.416 128.749V127.679L120.703 122.816V124.501C120.703 128.044 118.591 131.251 115.335 132.651V132.648Z" fill="black" stroke="#FF788F" stroke-width="1.2" stroke-linecap="round" stroke-linejoin="round"/>
<path d="M126.699 127.764C123.899 128.968 120.78 126.915 120.78 123.866V122.782L132.106 117.901V119.557C132.106 123.126 129.979 126.354 126.702 127.764H126.699Z" fill="white" stroke="#FF788F" stroke-width="1.2" stroke-linecap="round" stroke-linejoin="round"/>
<path d="M138.06 122.88L138.022 122.897C135.222 124.101 132.103 122.048 132.103 118.999V117.904L143.463 113.01V114.68C143.463 118.248 141.337 121.476 138.06 122.887V122.88Z" fill="black" stroke="#FF788F" stroke-width="1.2" stroke-linecap="round" stroke-linejoin="round"/>
<path d="M155.087 107.997L143.688 112.909L132.025 102.352L143.424 97.4395L155.087 107.997Z" fill="white" stroke="#FF788F" stroke-width="1.2" stroke-linecap="round" stroke-linejoin="round"/>
<path d="M166.487 103.085L155.087 107.997L143.424 97.4394L154.824 92.5273L166.487 103.085Z" fill="black" stroke="#FF788F" stroke-width="1.2" stroke-linecap="round" stroke-linejoin="round"/>
<path d="M177.963 98.1375L166.564 103.05L154.897 92.4922L166.297 87.5801L177.963 98.1375Z" fill="white" stroke="#FF788F" stroke-width="1.2" stroke-linecap="round" stroke-linejoin="round"/>
<path d="M189.363 93.2254L177.963 98.1375L166.297 87.58L177.696 82.668L189.363 93.2254Z" fill="black" stroke="#FF788F" stroke-width="1.2" stroke-linecap="round" stroke-linejoin="round"/>
<path d="M120.815 122.764L109.415 127.677L97.749 117.119L109.149 112.207L120.815 122.764Z" fill="black" stroke="black" stroke-width="1.2" stroke-linecap="round" stroke-linejoin="round"/>
<path d="M97.749 117.119L109.149 112.207L120.815 122.764L108.405 128.115" stroke="#FF788F" stroke-width="1.2" stroke-linecap="round" stroke-linejoin="round"/>
<path d="M132.288 117.821L120.888 122.733L109.226 112.176L120.625 107.264L132.288 117.821Z" fill="white" stroke="#FF788F" stroke-width="1.2" stroke-linecap="round" stroke-linejoin="round"/>
<path d="M143.688 112.909L132.288 117.821L120.625 107.264L132.025 102.352L143.688 112.909Z" fill="black" stroke="#FF788F" stroke-width="1.2" stroke-linecap="round" stroke-linejoin="round"/>
<path d="M97.749 124.041V110.41" stroke="#FF788F" stroke-width="1.2" stroke-linecap="round" stroke-linejoin="round"/>
</svg>
